<?xml version="1.0" encoding="UTF-8"?>
<svg id="Layer_2" data-name="Layer 2" xmlns="http://www.w3.org/2000/svg" viewBox="0 0 157.88 34.06">
  <defs>
    <style>
      .cls-1 {
        fill: #fff;
      }

      .cls-2 {
        fill: #39b54a;
      }

      .cls-3 {
        fill: #5a5b5d;
      }

      .cls-4 {
        fill: #003976;
      }

      .cls-5 {
        fill: #f7941d;
      }

      .cls-6 {
        fill: #ed1c24;
      }
    </style>
  </defs>
  <g id="Layer_1-2" data-name="Layer 1">
    <g>
      <g>
        <g>
          <path class="cls-4" d="m34.31,19.35v-.07s0-.07,0-.07c-.02-.11-.03-.23-.03-.35v-.28c0-.16,0-.06-.04-.23l-.03-.14s-.05-.06-.09-.1c0,0-.03-.05-.03-.05-.06-.14-.18-.15-.5-.23-.06-.02-.13-.03-.22-.02-.35-.2-.72-.11-.95-.06-.08.02-.16.04-.22.04-.23-.15-.45-.16-.63-.14-.01,0-.02,0-.02,0-.04,0-.08.01-.12.03,0,0-.02,0-.03,0-.04,0-.07.02-.1.03,0,0-.02,0-.03,0-.04.01-.07.02-.1.04-.05.02-.13.05-.16.06-.55-.33-1.18-.15-1.6-.03l-.07.02-.03.02h0l-.03.02s-.05.03-.24-.06c-.23-.1-.59-.25-1.02-.08-.16.01-.32.04-.45.08-.15.04-.32.08-.39.05,0,0-.13,0-.25.02h0c-.13.01-.25.02-.25.03-.07.03-.3.03-.44.03-.19,0-.39,0-.58.04l-.09.02-.08.05c-.32.2-.58.07-.57.54,0,.08.01.17.03.26-.12.38-.18.66-.24,1-.06.34-.12.53-.24.87-.08.11-.31.45-.31.45-.31.46-.6.89-1.02,1.27-.36.31-.47.71-.56,1.02-.04.15-.09.29-.14.39-.07.11-.14.14-.5.16-.31.03-.75.06-1.11.41-.24.05-.43.16-.57.25l-.03.02-.03.02c-.09.08-.23.13-.39.19,0,0-.19.07-.27.11-.31.1-.67.07-1.05.04-.29-.02-.59-.03-.9,0-.29-.12-.59-.14-.83-.15,0,0-.03,0-.07,0-.12-.04-.52-.19-.52-.19-1.01-.37-1.96-.72-2.81-1.33h-.02s-.05-.05-.05-.05c-.44-.26-.85-.5-1.19-.85-.16-.3-.37-.55-.58-.8-.3-.36-.57-.67-.58-1.03v-.14s-.07-.12-.07-.12c-.09-.14-.12-.16-.15-.35-.05-.26-.11-.51-.37-.86l-.07-.1c-.02-.23-.15-.11-.26-.2.05-.14-.09-.37-.24-.42-.17-.53-.58-.26-.72-.23,0,0,0,0,0,0-.05-.19-.18-.32-.31-.38l-.05-.02h-.05c-.38-.12-.71-.08-.99,0-.21-.08-.42-.1-.61-.11h-.31c-.39-.04-.89-.06-1.32.19-.17-.08-.48-.22-.84-.07h-.02s-.03.03-.03.03c-.11.06-.27.05-.52.02-.17-.02-.37-.04-.59-.02-.04-.03-.08-.05-.13-.07-.01,0-.02-.01-.04-.02-.03-.01-.06-.02-.09-.04-.01,0-.03,0-.04-.01-.03,0-.06-.01-.09-.02-.01,0-.02,0-.04,0-.04,0-.08-.01-.12-.01-.02,0-.03,0-.05,0h-.07s-.04,0-.06,0c-.02,0-.03,0-.04,0-.09,0-.17.03-.24.04-.07.01-.16.03-.2.03-.02-.02-.2-.14-.2-.14l-.25.08c-.07.02-.17.04-.28.06-.35.06-.88.15-1.14.7,0,0-.04.1-.04.11,0,.03-.06.14-.1.2-.08.14-.22.13-.22.42,0,.12.03.18.09.3,0,.07-.02.14-.01.2,0,.38.21.64.34.82.02.03.04.05.06.06.01,0,.02.02.03.02.04.02.05,0,.05.04,0,0,0,.06,0,.06,0,0,0,.01,0,.03-.14.17-.21.34-.2.53,0,.11.04.23.11.35,0,.02,0,.04,0,.05,0,.33.17.58.28.74.02.04.06.08.07.11-.02.05-.08.19-.08.19l.1.22c.18.36.38.71.57,1.06.18.32.37.66.54.99v-.03c.02.09.07.16.11.22.28.4.71.51,1.01.58.13.03.25.06.33.1.08.08.49.49.65.65.05.23.16.4.26.52,0,0,0,.02,0,.02,0,.06.02.14.02.19,0,.02,0,.04,0,.05,0,0-.04.1-.04.1l-.04.16s0,.04,0,.05c0,.03,0,.05,0,.07.05.58.54.98.84,1.21.13.16.27.31.41.46.02.03.05.05.08.08.14.14.28.26.43.38.02.02.04.04.07.06.32.26.65.49.98.71.15.1.31.2.46.3l.88.57.13.02s.12.01.24.02c.32.33.72.45,1.05.55.19.06.38.12.51.2.31.4.79.64,1.35.68.66.4,1.39.54,2.09.67l.83.16h.09c.16-.01.34.03.54.08,0,0,.14.03.26.05.19.13.39.19.6.22.26.03.5,0,.7-.03.16-.02.32-.05.42-.03.16.03.3.03.45.03.02,0,.04,0,.05,0,.13,0,.27-.02.4-.04.24-.04.48-.1.71-.16.14.05.51.18.51.18l.18-.06c.1-.03.25-.05.4-.06.34-.03.83-.07,1.18-.46,0,0,.01,0,.02,0h.01c.45.16.8,0,1.04-.11.06-.03.16-.07.19-.08.01,0,.17.05.17.05l1.13-.45c.77-.3,1.56-.6,2.29-1.08.25-.14.4-.34.53-.51.06-.08.15-.2.19-.21l.19-.04.12-.16c.33-.46.68-.79,1.1-1.17,0,0,.06-.06.1-.09.32-.18.47-.46.57-.67.03-.07.07-.14.09-.18l.14-.19-.04-.23s0-.02,0-.03c0-.05.02-.1.05-.13.24-.15.46-.32.66-.49.26-.22.51-.42.76-.52.37.1.65-.11.75-.19,0,0,0,0,.02-.02.07,0,.15.01.15.01l.17-.16c.37-.34.85-.86,1.02-1.51.02-.04.15-.31.15-.31.24-.49.5-1.03.5-1.68,0-.09,0-.18-.02-.27h0v-.02s0-.02,0-.03c0-.08.05-.15.23-.35.07-.08.15-.18.22-.29.04-.05.07-.11.1-.17.03-.06.06-.12.08-.18.01-.02.02-.05.03-.08.03-.09.05-.18.05-.28.16-.26.18-.54.2-.76l.03-.25s0,0,0,0l.05-.11c.06-.12.15-.29.16-.5t0,0v-.12s-.09-.13-.09-.13c0-.03.02-.06.02-.06.03-.1.07-.16.09-.33Zm-25.25-1.14h0,0Z"/>
          <path class="cls-4" d="m.11,15.28s.01.06.01.1c0,.06,0,.14-.01.22,0,.09-.01.2-.01.32,0,.11.01.18.05.24.04.09.12.16.25.31l.02.02.02.02c.39.36.88.21,1.14.12l.16-.04s.05,0,.05,0l.09-.02c.22-.06.45-.09.69-.1h0c.27,0,.55,0,.83.02.42.02.85.05,1.29,0,0,0,.15-.02.33-.04h0c.24-.03.54-.06.59-.07.21-.02.35-.02.44-.03.36.2.73.13.99.09.12-.02.25-.05.31-.03.22.06.4,0,.54-.04.05.07.45.05.45.05.1-.03.25-.04.39-.04.41-.02,1.03-.06,1.4-.65l.02-.03s.19-.2.24-.36c.06-.17.1-.32.2-.5.42-.42.7-.96.94-1.5.39-.28.71-.6.94-.94.21-.16.4-.34.58-.51.17-.17.34-.34.52-.47l.17-.12.04-.2c.04-.18.28-.39.45-.52,0,0,.01.01.02.02l.2.15.27-.07.4-.11c.38-.09.79-.2,1.16-.5.03.04.05.08.05.08,0,0,1.85-.06,1.94-.06,1.2.19,2.45.42,3.49,1.11.24.25.53.36.76.43.14.05.26.09.33.15.22.35.46.69.69,1.03,0,0,.22.33.31.45.07.4.31.69.49.9.09.1.17.2.22.29h0c0,.42.24.58.41.65,0,.04-.02.08-.02.13v.12s.04.09.05.13c0,.02,0,.05,0,.1v.05c.02.33.15.83.78.91.35.07.73-.07.98-.24.02,0,.06,0,.1-.01.3.28.76.28,1,.29.11,0,.28,0,.34.02l.2.08.21-.08c.16-.06.31-.06.47,0l.19.07h0l.04.02.14-.09s.13-.08.2-.12c.15.04.3.04.4.04.04,0,.1,0,.12,0,.01,0,.44.04.52-.04h0l.04.03.05.03c.05.03.11.04.15.06.02,0,.03,0,.05.01.04,0,.07.01.1.02.02,0,.04,0,.05,0,.03,0,.06,0,.09,0,.01,0,.03,0,.05,0,.02,0,.05,0,.07-.01.02,0,.04,0,.05-.02.02,0,.04-.01.06-.02.02,0,.04-.02.06-.02.01,0,.03-.01.04-.02.02-.01.04-.02.06-.03.01,0,.02,0,.02-.01.03-.02.05-.03.07-.04h0s.03-.02.04-.03c.37.12.82.07,1.2.02.17-.02.44-.06.52-.04l.31.07.22-.24s.06-.08.09-.13c.04-.06.08-.12.1-.18,0,0,0,0,0,0,.03-.06.05-.11.06-.17,0-.01,0-.03,0-.04.01-.05.02-.1.03-.15,0-.07.01-.13,0-.2,0-.24-.05-.22-.1-.43-.05-.22-.1-.42-.1-.63,0-.07,0-.13.01-.2v-.07s0-.08,0-.1v-.09c.03-.07.05-.17.05-.28,0-.13-.03-.28-.12-.43l-.03-.05-.04-.04c-.06-.06-.09-.18-.14-.33,0,0-.05-.13-.09-.24,0-.02,0-.04,0-.06,0-.44-.14-.84-.26-1.2-.06-.18-.11-.36-.15-.53l-.02-.1-.08-.12-.19-.28s-.09-.12-.17-.23v-.02l-1.27-2.59-1.11-1.68s-.06.01-.1.02c-.14-.19-.28-.37-.42-.55l-.17-.22v.02c-.59-.81-1.41-1.45-2.2-2.07-.33-.26-.66-.52-.97-.79l-.12-.11s-.1-.01-.13-.02c-.02-.01-.07-.06-.1-.09-.11-.11-.28-.28-.53-.36-.82-.56-1.61-.8-2.4-.74-.42-.12-.83-.11-1.22-.11,0,0-.16,0-.24,0-.11-.03-.94-.23-1.15-.29-.08-.08-.22-.21-.22-.21,0,0-.09.06-.19.11-.13-.03-.46-.11-.46-.11,0,0-.03.01-.04.02-.04,0-.08,0-.12-.01-.09,0-.19,0-.3.02-.17-.07-.36-.11-.53-.13-.14-.02-.28-.02-.42-.02-.12,0-.23.01-.35.02h0c-.12.02-.23.03-.34.05-.03,0-.05,0-.08.02-.1.02-.2.04-.3.06-.19-.05-.37-.05-.52-.05-.06,0-.15,0-.18,0h0l-.09-.02h-.1c-.18.03-.36.04-.55.04-.22,0-.45,0-.69.01-.46,0-.93,0-1.38.05-.21.02-.43.06-.63.11-.23.05-.45.13-.67.23l-.35.13c-1.18.44-2.39.89-3.38,1.79-.09.03-.17.08-.25.12-.22.1-.42.22-.61.33-.17.11-.33.21-.5.29l-.05.03-.05.04c-.24.2-.47.4-.69.59-.13.12-.26.23-.39.35-.77.7-1.44,1.37-2.04,2.07l-.04.05-.02.03-.09.19c-.03.05-.06.12-.08.14-.03.01-.15.07-.15.07l-.09.16c-.09.15-.12.34-.12.53,0,.12.03.24.07.35-.03.03-.05.06-.09.1h-.05c-.12,0-.3,0-.48.07l-.13.06-.19.08v.25h0v.12s-.01.01-.02.02h0s0,0,0,0c-.03.04-.09.09-.13.13-.17.16-.42.39-.48.78v.08s0,0,0,0c0,0,.02.13.04.2-.05.06-.08.12-.12.18-.01.02-.02.05-.04.07-.02.04-.04.08-.05.11-.01.03-.03.06-.04.1,0,.02-.02.05-.02.07-.02.04-.03.09-.04.14h0s-.02.06-.03.08c-.08.3-.12.4-.23.45l-.15.07-.08.14c-.35.66-.53,1.35-.7,2.03-.11.45-.22.87-.37,1.26v.04c-.12.11-.26.29-.25.56,0,.08.01.17.04.27v.02Zm3.69-7.06l-.04-.09s0-.02,0-.02c.02.04.03.08.05.11Zm-1.51,1.62l.05-.05s-.04.04-.05.06c0,0,0-.01,0-.02Z"/>
        </g>
        <path class="cls-2" d="m29.68,8.66c-.74-.3-1.35,0-1.9.25,0,0-.07.04-.14.07.03-.35.12-.7.22-1.05.11-.39.23-.8.24-1.21v-.16c-.04-.23-.15-.42-.33-.54-.23-.16-.57-.21-.94-.14-.76.29-1.36.73-1.75,1.27,0,0,0,0,0,0l-.1.07s-.03.03-.04.04c0-.12,0-.23,0-.34.01-.36.07-.71.12-1.04.05-.35.11-.7.12-1.07.01-.45-.04-.93-.24-1.44-.18-.48-.61-.98-1.25-.97-1.78.37-2.8,1.68-3.78,2.94l-1.18,1.41s-.48.51-.48.51c-.31.31-.57.57-.78,1.05v.02s0,.02,0,.02c.03.12.1.21.2.25.29.11.75-.11.98-.26.72-.56,1.05-.91,1.56-1.46l.4-.42s.38-.51.38-.51c.61-.83,1.25-1.69,2.41-1.82.25.06.29.27.34.49l.04.17s-.18,1.29-.18,1.29c-.17.87-.34,1.76.05,2.71.17.37.43.59.74.63.33,0,.56-.19.76-.36l.05-.05c.37-.57.81-1.11,1.36-1.65.04.02.07.03.1.05v.07c-.02.6-.24,1.32-.42,1.9l-.16.52c.1.63.24,1.14.96,1.29.43-.08.75-.35,1.06-.62.2-.18.4-.34.61-.44,0,0,0,.02,0,.02-.28.79-.43,1.63-.45,2.48,0,.29,0,.57.02.87.05.38.29.98.62,1.11.17,0,.22-.12.25-.21l.05-.1c.08-1.28.45-2.84.84-4.34,0-.01,0-.09,0-.09.02-.51.03-1.04-.37-1.21Z"/>
        <path class="cls-6" d="m11.2,6.49l-.31-.39c-.6-.62-1.5-.87-2.46-.68-1.15.34-1.74,1.58-1.89,2.53-.24,1.08.39,1.87.88,2.38h0s.28.15.28.15l.38.18c.32.24.63.39.94.49.75.04,1.35-.13,1.8-.5.19-.12.3-.29.41-.45l.22-.3c.28-.59.42-1.32.4-2.18-.02-.49-.34-.87-.64-1.24Z"/>
        <path class="cls-1" d="m28.65,26.01c.73.26.71,1.17,1.46,1.26.23-.05.46-.05.59-.29.42-.93.22-2.17-.18-3.07-.42-.74-.12-1.82-.87-2.39-1.81-.11-3.47-1.17-5.4-.46-1.06,1.22,1.33,1.23,1.13,2.41.03.39-.08.76-.43.96-1.37.36-2.77.69-3.99,1.34-.34.31-1.22.42-.94,1.11.17.28.49.24.75.18,1.14-.58,2.37-.99,3.68-1.23.54-.12,1.15-.11,1.44.43.29,1.7-.51,3.18-.96,4.68-.03.28-.16.65.19.81.2.04.43.02.56-.14.53-.86.86-1.8,1.16-2.74.36-.89.19-1.97.81-2.77.27-.15.7-.14.99-.09Zm-.44-1.36c-.64-.22-1.29-.72-1.53-1.37-.01-.31-.12-.7.27-.83.82-.21,1.53.32,1.99.97.19.26.23.65.19.98-.2.33-.62.31-.92.25Z"/>
        <path class="cls-5" d="m6.33,20.38c.1.54.14,1.12.67,1.43.92.45,2.01-.21,3.01-.03.84.16,1.75.86,2.04,1.68.72,1.71-1.35,2.88-.49,4.53.73,1.2,2.15,1.79,3.35,2.26.21.18.52.47.25.74-.18.28-.49.43-.82.35-1.59-.3-3.58-1.37-4.17-3.04-1.11-1.9,2.02-3.92-.53-5.2-.65-.16-1.24.18-1.66.62-.7.75-1.13,1.61-.79,2.59.29,1.07,1.62,2.58.29,3.5-1.22-.1-.84-1.57-1.36-2.3-.95-1.43.26-2.83-.26-4.28-.52-.77-1.11-1.6-.9-2.65.09-.25.31-.54.53-.67.34-.07.65.23.83.47Z"/>
      </g>
      <g>
        <path class="cls-3" d="m134.59,18.07c0-2.11-2.55-3.83-5.68-3.83s-5.68,1.72-5.68,3.83,2.55,3.84,5.68,3.84,5.68-1.72,5.68-3.84Zm-9.16,0c0-1.47,1.76-2.39,3.47-2.39s3.47.92,3.47,2.39-1.76,2.38-3.47,2.38-3.47-.91-3.47-2.38Z"/>
        <path class="cls-3" d="m115.31,18.42c0-2.11-2.55-3.84-5.68-3.84s-5.68,1.72-5.68,3.84,2.55,3.83,5.68,3.83,5.68-1.72,5.68-3.83Zm-9.15,0c0-1.47,1.76-2.39,3.47-2.39s3.47.92,3.47,2.39-1.76,2.39-3.47,2.39-3.47-.92-3.47-2.39Z"/>
        <path class="cls-3" d="m53.12,2.45l-.03.12s0,.05,0,.07c0,.45.94.81,1.24.91,1.09.2,1.21.8,1.22.83l.02,2.69h-3.97c.08-.13.22-.36.22-.36.04-.07.41-.83.41-.83l.41-.9h-9.69s.35,1.33.35,1.33h6.24c-1.46,2.53-2.1,3.46-3.65,5.1-1.59,1.69-2.19,2.11-3.28,2.83-.16.1-.3.21-.27.35l.02.1.22.1c.24.07.65-.03,1.26-.29.98-.41,2.16-1.19,3.52-2.31,1.19-.98,2.28-2.22,3.26-3.65h4.96v2.18s-5.98,0-5.98,0v1.48h5.99v3.33s.17-.02.17-.02c1.48-.16,1.75-3.46,1.76-3.6V2.76l-4.38-.32Z"/>
        <path class="cls-3" d="m146.7,8.88l.09-.16s.39-.77.72-1.76c.33-1,.07-1.35.07-1.35,0,0-.2-.36-.2-.36-.08-.03-4.47-.37-4.47-.37l.2.41c.49.67,1.03.8,1.42.89.3.07.46.12.52.31.06.18-.19.92-.27,1.16-.58,1.8-1.08,2.75-2.33,4.43-1.22,1.66-2.32,2.81-3.25,3.43-.29.19-.4.33-.37.47v.09s.23.11.23.11c.28.08.96-.14,1.49-.48l.22-.15c.87-.57,1.95-1.29,2.65-2.05,0,0,.94-1.15,1.49-1.84l4.64,4.7,1.28-1.32-4.83-4.89.7-1.27Z"/>
        <path class="cls-3" d="m129.41,7.2l-3.93-.05.1.55c.24.39.93.53,1.01.55.77.11.85.55.85.57l.02,2.38h-7.95v1.59h18.64v-1.59h-8.75v-4Z"/>
        <path class="cls-3" d="m87.92,11.38c0,.18.05.33.17.39l.04.02.2.04c.28-.03.61-.35.96-.94.03-.05.98-1.41,1.56-5.66l.02-.17h-10.66l.36,1.41h7.82c0,.2.02.46.02.86,0,1-.06,2.41-.37,3.4-.06.21-.12.46-.12.65Z"/>
        <path class="cls-3" d="m92.42,18.29l.16-.02c1.48-.15,1.83-3.46,1.84-3.59v-3.43h3.67v-1.48h-3.67V2.76l-4.46-.36-.04.14s-.01.05-.01.08c0,.45.94.81,1.24.91,1.09.2,1.21.8,1.21.83l.04,8.43h-6.55v-4.29l-3.92-.06.1.55c.25.39.94.53,1.01.54.77.11.85.56.85.58l.03,2.69h-4.98v1.47h13.48v4.02Z"/>
        <path class="cls-3" d="m65.64,14.2c1.52-1.4,2.81-3.03,3.94-5,.07-.12.86-1.58.86-1.58l.8-1.69h-10.35s.37,1.49.37,1.49h6.75c-1.57,3.01-2.14,3.94-3.73,5.82-1.67,1.96-2.52,2.58-3.7,3.44-.16.12-.3.23-.3.37,0,0,0,.02,0,.04l.02.09.23.12c.26.08.69-.04,1.35-.35,1.04-.49,2.31-1.41,3.75-2.74Z"/>
        <path class="cls-3" d="m72.5,3.53c1.09.2,1.21.8,1.22.83l.05,17.66.16-.02c1.48-.15,1.82-3.46,1.84-3.6V2.74s-4.47-.32-4.47-.32l-.03.12s0,.05,0,.08c0,.45.94.81,1.24.91Z"/>
        <path class="cls-3" d="m108.76,10.05c0,.18.04.32.16.39,0,0,.31.04.31.04.29-.06.6-.35.91-.87.04-.04.58-.73,1.19-4.86l.03-.17h-10.64l.4,1.45h7.89c.04.29.09.79.09,1.41s-.06,1.3-.24,1.95c-.06.22-.12.46-.12.66Z"/>
        <path class="cls-3" d="m113.09,15.09l.16-.02c1.48-.15,1.75-3.46,1.76-3.6v-1.34h3.44v-1.47h-3.44V2.8l-4.37-.36-.04.15s0,.05,0,.07c0,.45.94.81,1.24.91,1.09.19,1.21.8,1.22.83l.03,7.36h-6.6v-3.99l-3.92-.06.1.55c.24.39.93.53,1.01.54.77.11.85.56.85.57l.02,2.38h-5.03v1.48h13.57v1.85Z"/>
        <path class="cls-3" d="m122.65,5.47h10.24c.04.3.08.74.08,1.31,0,.61-.05,1.3-.23,1.95-.2.56-.26.89-.26,1.08,0,.24.09.28.14.3,0,0,.3.02.3.02.34-.08.71-.46,1.09-1.13.02-.04.67-1.02,1.2-4.92l.03-.17h-12.94l.36,1.55Z"/>
        <path class="cls-3" d="m154.33,10.76V2.76l-4.47-.34-.03.12s0,.05,0,.08c0,.45.94.81,1.24.91,1.09.2,1.21.8,1.21.83l.05,17.88h.16c1.48-.17,1.82-3.47,1.84-3.61v-6.39h3.55v-1.48h-3.55Z"/>
        <path class="cls-3" d="m95.63,21.02v-1.48h-10.06l.09-3.93-3.93-.06.1.55c.25.39.93.53,1.01.55.77.11.85.56.85.58,0,0,.01,1.37.02,2.32v1.48h11.91Z"/>
        <path class="cls-3" d="m51.17,14.41c-3.14,0-5.69,1.72-5.69,3.83s2.55,3.84,5.69,3.84,5.68-1.72,5.68-3.84-2.55-3.83-5.68-3.83Zm0,6.22c-1.71,0-3.47-.92-3.47-2.39s1.76-2.39,3.47-2.39,3.47.92,3.47,2.39-1.76,2.39-3.47,2.39Z"/>
      </g>
      <g>
        <path class="cls-3" d="m48.54,28.7c-.37.03-.59.05-.59.65v1.69c0,.12-1.12.61-2.05.61-.83,0-1.77-.25-2.37-.9-.45-.49-.7-.99-.7-2.09,0-1.41,1.09-2.82,2.88-2.82.85,0,1.24.28,1.51.28.07,0,.35-.04.39-.28h.19l.07,1.78h-.19c-.23-.61-.66-1.44-1.85-1.44-.8,0-2.04.53-2.04,2.66,0,1.53.88,2.48,2.18,2.48.57,0,1.16-.19,1.16-.5v-1.37c0-.7-.17-.71-.74-.75v-.15h2.15v.15Z"/>
        <path class="cls-3" d="m53,27.71c-.21.02-.41.05-.82.68l-.88,1.34v1.15c0,.43.08.53.61.53v.11h-1.82v-.11c.59-.01.6-.15.6-.6v-1.03l-.78-1.14c-.61-.89-.7-.91-.96-.93v-.11h1.66v.11c-.27.01-.42.02-.42.18,0,.07.05.18.1.26l.88,1.32.85-1.34c.04-.07.08-.14.08-.22,0-.18-.22-.2-.41-.2v-.11h1.3v.11Z"/>
        <path class="cls-3" d="m56.52,31.54h-3.21v-.11c.38-.02.52-.08.52-.53v-2.64c0-.47-.14-.5-.52-.53v-.11h3.16l.02.85h-.15c-.09-.53-.24-.62-.9-.62h-.8c-.13,0-.2,0-.2.2v1.32h.91c.53,0,.59-.14.66-.56h.14v1.38h-.14c-.07-.48-.16-.56-.66-.57h-.91s0,1.46,0,1.46c0,.24,0,.25.88.25.74,0,1.04-.18,1.3-.78h.17l-.27,1Z"/>
        <path class="cls-3" d="m59.13,31.4c-.66,0-1.27-.53-1.27-1.84s.66-1.84,1.27-1.84,1.27.48,1.27,1.84-.61,1.84-1.27,1.84Zm0,.21c1.07,0,1.94-.78,1.94-2.05,0-1.37-.97-2.06-1.94-2.06s-1.94.69-1.94,2.06c0,1.27.87,2.05,1.94,2.05Z"/>
        <path class="cls-3" d="m65.6,27.71c-.38.04-.56.06-.56.76v3.13h-.1l-2.62-3.26h-.01v2.32c0,.61.13.74.56.76v.11h-1.4v-.11c.45-.03.58-.12.58-.76v-2.62c-.24-.3-.34-.33-.58-.33v-.11h1.02l2.28,2.86h.01v-1.99c0-.68-.17-.73-.57-.76v-.11h1.4v.11Z"/>
        <path class="cls-3" d="m70.03,29.54c-.26.02-.42.04-.42.46v1.2c0,.08-.79.43-1.45.43-.59,0-1.25-.18-1.67-.64-.32-.34-.5-.7-.5-1.47,0-1,.77-1.99,2.04-1.99.6,0,.87.2,1.06.2.05,0,.25-.03.28-.2h.13l.05,1.25h-.14c-.16-.43-.47-1.02-1.3-1.02-.57,0-1.44.37-1.44,1.88,0,1.08.62,1.75,1.54,1.75.41,0,.82-.14.82-.35v-.96c0-.49-.12-.5-.52-.53v-.11h1.52v.11Z"/>
        <path class="cls-3" d="m74.44,29.54c-.26.02-.42.04-.42.46v1.2c0,.08-.79.43-1.44.43-.59,0-1.25-.18-1.67-.64-.32-.34-.5-.7-.5-1.47,0-1,.77-1.99,2.03-1.99.6,0,.87.2,1.06.2.05,0,.25-.03.28-.2h.13l.05,1.25h-.14c-.16-.43-.47-1.02-1.3-1.02-.57,0-1.44.37-1.44,1.88,0,1.08.62,1.75,1.54,1.75.41,0,.81-.14.81-.35v-.96c0-.49-.12-.5-.52-.53v-.11h1.52v.11Z"/>
        <path class="cls-3" d="m74.74,31.42c.5-.01.58-.11.58-.53v-2.64c0-.44-.08-.51-.58-.53v-.11h1.76v.11c-.43.02-.58.06-.58.53v2.64c0,.46.14.52.58.53v.11h-1.76v-.11Z"/>
        <path class="cls-3" d="m82.15,31.54h-2.46v-.16c.77-.03.79-.23.79-.85v-4.21h-.46c-.93,0-1.15.16-1.34,1.08h-.2l.05-1.43h4.75l.05,1.43h-.2c-.18-.93-.41-1.08-1.34-1.08h-.45v4.31c0,.57.1.73.81.76v.16Z"/>
        <path class="cls-3" d="m85.8,31.4c-.66,0-1.26-.53-1.26-1.84s.66-1.84,1.26-1.84,1.27.48,1.27,1.84-.61,1.84-1.27,1.84Zm0,.21c1.08,0,1.95-.78,1.95-2.05,0-1.37-.97-2.06-1.95-2.06s-1.94.69-1.94,2.06c0,1.27.87,2.05,1.94,2.05Z"/>
        <path class="cls-3" d="m92.26,27.71c-.46.05-.56.14-.56.76v1.55c0,.47,0,1.59-1.54,1.59s-1.47-1.16-1.47-1.52v-1.86c0-.44-.09-.5-.54-.53v-.11h1.68v.11c-.47.03-.54.11-.54.53v1.9c0,.38,0,1.21,1.03,1.21.46,0,.8-.19.97-.47.08-.13.14-.33.14-.81v-1.61c0-.64-.14-.74-.56-.76v-.11h1.38v.11Z"/>
        <path class="cls-3" d="m93.69,28.03c0-.17.05-.21.37-.21.25,0,1.02.02,1.02.81,0,.85-.89.86-1.39.87v-1.46Zm2.7,3.39c-.24-.01-.38-.12-.52-.28l-1.23-1.5c.3-.06,1.08-.2,1.08-1,0-.92-.98-1.04-1.51-1.04h-1.64v.11c.41.04.5.09.5.53v2.58c0,.45-.03.57-.5.6v.11h1.65v-.11c-.47-.02-.53-.14-.53-.53v-1.17h.33s1.42,1.82,1.42,1.82h.96v-.11Z"/>
        <path class="cls-3" d="m96.67,31.42c.51-.01.58-.11.58-.53v-2.64c0-.44-.08-.51-.58-.53v-.11h1.77v.11c-.44.02-.58.06-.58.53v2.64c0,.46.14.52.58.53v.11h-1.77v-.11Z"/>
        <path class="cls-3" d="m101.45,28.78h-.15c-.1-.49-.48-1.02-1.11-1.02-.3,0-.6.18-.6.55,0,.89,1.99,1.01,1.99,2.23,0,.5-.4,1.08-1.25,1.08-.45,0-.74-.2-.92-.2-.13,0-.19.1-.19.2h-.13l-.18-1.26h.14c.11.28.41,1.05,1.22,1.05.47,0,.71-.34.71-.66,0-.34-.09-.54-.97-1.05-.55-.32-.93-.58-.93-1.17,0-.68.54-1.01,1.08-1.01.36,0,.68.2.83.2.17,0,.2-.14.21-.2h.12l.13,1.27Z"/>
        <path class="cls-3" d="m107.22,27.71c-.38.03-.52.06-.52.53v2.64c0,.46.14.51.52.53v.11h-1.67v-.11c.46-.02.54-.11.54-.6v-2.67h-.01l-1.51,3.38h-.08l-1.48-3.25h-.02v2.37c0,.61.13.74.56.76v.11h-1.4v-.11c.45-.03.58-.12.58-.76v-2.41c0-.46-.12-.51-.57-.53v-.11h1.18l1.37,3,1.31-3h1.18v.11Z"/>
        <path class="cls-3" d="m112.14,31.35c-.94,0-1.79-.75-1.79-2.6s.93-2.6,1.79-2.6,1.8.68,1.8,2.6-.86,2.6-1.8,2.6Zm0,.3c1.53,0,2.76-1.1,2.76-2.9,0-1.94-1.37-2.92-2.76-2.92s-2.75.98-2.75,2.92c0,1.79,1.23,2.9,2.75,2.9Z"/>
        <path class="cls-3" d="m116.56,28.03c0-.17.05-.21.37-.21.25,0,1.02.02,1.02.81,0,.85-.89.86-1.39.87v-1.46Zm2.7,3.39c-.24-.01-.39-.12-.52-.28l-1.22-1.5c.3-.06,1.08-.2,1.08-1,0-.92-.98-1.04-1.51-1.04h-1.64v.11c.41.04.5.09.5.53v2.58c0,.45-.02.57-.5.6v.11h1.64v-.11c-.47-.02-.53-.14-.53-.53v-1.17h.33s1.41,1.82,1.41,1.82h.96v-.11Z"/>
        <path class="cls-3" d="m123.65,29.54c-.26.02-.42.04-.42.46v1.2c0,.08-.79.43-1.45.43-.59,0-1.25-.18-1.67-.64-.31-.34-.49-.7-.49-1.47,0-1,.78-1.99,2.03-1.99.6,0,.88.2,1.07.2.05,0,.24-.03.28-.2h.13l.05,1.25h-.14c-.16-.43-.47-1.02-1.3-1.02-.56,0-1.44.37-1.44,1.88,0,1.08.62,1.75,1.54,1.75.4,0,.82-.14.82-.35v-.96c0-.49-.12-.5-.52-.53v-.11h1.52v.11Z"/>
        <path class="cls-3" d="m125.13,30.01l.68-1.64.69,1.64h-1.37Zm2.91,1.42c-.26-.02-.34-.08-.54-.52l-1.48-3.38h-.12l-1.23,2.92c-.12.26-.3.7-.44.84-.11.11-.21.12-.3.13v.11h1.18v-.11c-.12,0-.4,0-.4-.25,0-.06.02-.15.05-.22l.27-.7h1.56l.24.57c.04.08.11.28.11.37,0,.22-.2.23-.42.23v.11h1.52v-.11Z"/>
        <path class="cls-3" d="m132.47,27.71c-.38.04-.57.06-.57.76v3.13h-.1l-2.61-3.26h-.01v2.32c0,.61.13.74.56.76v.11h-1.4v-.11c.45-.03.58-.12.58-.76v-2.62c-.24-.3-.34-.33-.58-.33v-.11h1.02l2.28,2.86h.01v-1.99c0-.68-.17-.73-.57-.76v-.11h1.4v.11Z"/>
        <path class="cls-3" d="m132.78,31.42c.5-.01.58-.11.58-.53v-2.64c0-.44-.08-.51-.58-.53v-.11h1.76v.11c-.43.02-.58.06-.58.53v2.64c0,.46.14.52.58.53v.11h-1.76v-.11Z"/>
        <path class="cls-3" d="m138.32,30.49l-.14,1.05h-3.35v-.09l2.6-3.62h-1.31c-.85,0-.92.39-1,.79h-.15l.12-1.02h3.13v.09l-2.57,3.62h1.53c.78,0,.89-.38,1.02-.82h.14Z"/>
        <path class="cls-3" d="m139.81,30.01l.68-1.64.69,1.64h-1.37Zm2.91,1.42c-.26-.02-.34-.08-.54-.52l-1.48-3.38h-.12l-1.24,2.92c-.11.26-.3.7-.44.84-.11.11-.21.12-.3.13v.11h1.18v-.11c-.13,0-.41,0-.41-.25,0-.06.02-.15.05-.22l.27-.7h1.56l.24.57c.04.08.11.28.11.37,0,.22-.19.23-.41.23v.11h1.52v-.11Z"/>
        <path class="cls-3" d="m144.96,31.54h-1.74v-.11c.54-.02.56-.16.56-.6v-2.97h-.32c-.65,0-.81.11-.95.76h-.14l.04-1.01h3.35l.04,1.01h-.14c-.13-.65-.29-.76-.95-.76h-.32v3.04c0,.4.07.52.57.53v.11Z"/>
        <path class="cls-3" d="m146.13,31.42c.51-.01.58-.11.58-.53v-2.64c0-.44-.08-.51-.58-.53v-.11h1.77v.11c-.43.02-.58.06-.58.53v2.64c0,.46.14.52.58.53v.11h-1.77v-.11Z"/>
        <path class="cls-3" d="m150.27,31.4c-.66,0-1.27-.53-1.27-1.84s.66-1.84,1.27-1.84,1.27.48,1.27,1.84-.61,1.84-1.27,1.84Zm0,.21c1.08,0,1.94-.78,1.94-2.05,0-1.37-.97-2.06-1.94-2.06s-1.94.69-1.94,2.06c0,1.27.87,2.05,1.94,2.05Z"/>
        <path class="cls-3" d="m156.74,27.71c-.38.04-.57.06-.57.76v3.13h-.1l-2.62-3.26h-.01v2.32c0,.61.13.74.56.76v.11h-1.4v-.11c.45-.03.58-.12.58-.76v-2.62c-.25-.3-.34-.33-.58-.33v-.11h1.02l2.28,2.86h.01v-1.99c0-.68-.17-.73-.57-.76v-.11h1.4v.11Z"/>
      </g>
    </g>
  </g>
</svg>